<svg width="35" height="35" viewBox="0 0 35 35" fill="none" xmlns="http://www.w3.org/2000/svg">
<path d="M17.5 13.6111C15.3611 13.6111 13.6111 15.3611 13.6111 17.5C13.6111 19.6389 15.3611 21.3889 17.5 21.3889C19.6389 21.3889 21.3889 19.6389 21.3889 17.5C21.3889 15.3611 19.6389 13.6111 17.5 13.6111ZM31.1111 0H3.88889C1.73056 0 0 1.75 0 3.88889V31.1111C0 33.25 1.73056 35 3.88889 35H31.1111C33.2694 35 35 33.25 35 31.1111V3.88889C35 1.75 33.2694 0 31.1111 0ZM27.7083 17.5C27.7083 17.9472 27.6694 18.3944 27.6111 18.8222L30.4889 21.0778C30.7417 21.2917 30.8194 21.6611 30.6444 21.9528L27.9222 26.6583C27.7472 26.95 27.3972 27.0667 27.0861 26.95L23.7028 25.5889C23.0028 26.1333 22.225 26.5806 21.4083 26.9306L20.9028 30.5278C20.8444 30.8583 20.5528 31.1111 20.2222 31.1111H14.7778C14.4472 31.1111 14.1556 30.8583 14.0972 30.5472L13.5917 26.95C12.7556 26.6 11.9972 26.1528 11.2972 25.6083L7.91389 26.9694C7.60278 27.0861 7.25278 26.9694 7.07778 26.6778L4.35556 21.9722C4.18055 21.6806 4.25833 21.3111 4.51111 21.0972L7.38889 18.8417C7.33056 18.3944 7.29167 17.9472 7.29167 17.5C7.29167 17.0528 7.33056 16.6056 7.38889 16.1778L4.51111 13.9222C4.25833 13.7083 4.18055 13.3389 4.35556 13.0472L7.07778 8.34167C7.25278 8.05 7.60278 7.93333 7.91389 8.05L11.2972 9.41111C11.9972 8.86667 12.775 8.41944 13.5917 8.06944L14.0972 4.47222C14.1556 4.14167 14.4472 3.88889 14.7778 3.88889H20.2222C20.5528 3.88889 20.8444 4.14167 20.9028 4.45278L21.4083 8.05C22.2444 8.4 23.0028 8.84722 23.7028 9.39167L27.0861 8.03056C27.3972 7.91389 27.7472 8.03056 27.9222 8.32222L30.6444 13.0278C30.8194 13.3194 30.7417 13.6889 30.4889 13.9028L27.6111 16.1583C27.6694 16.6056 27.7083 17.0528 27.7083 17.5Z" fill="#E9C46A"/>
</svg>
